<svg width="70" height="71" viewBox="0 0 70 71" fill="none" xmlns="http://www.w3.org/2000/svg">
<path d="M35 0.5C15.6712 0.5 0 16.4166 0 36.048C0 52.7053 11.2933 66.643 26.5183 70.5C26.355 70.0201 26.25 69.4632 26.25 68.773V62.6972C24.8296 62.6972 22.4496 62.6972 21.8517 62.6972C19.4571 62.6972 17.3279 61.6515 16.2954 59.7082C15.1492 57.5487 14.9508 54.2457 12.11 52.2253C11.2671 51.5529 11.9088 50.7857 12.88 50.8893C14.6737 51.4048 16.1613 52.6549 17.5613 54.5093C18.9554 56.3667 19.6117 56.7873 22.2162 56.7873C23.4792 56.7873 25.3692 56.7133 27.1483 56.4289C28.105 53.9613 29.7588 51.6892 31.78 50.6168C20.125 49.3993 14.5629 43.5102 14.5629 35.5148C14.5629 32.0726 16.0067 28.7429 18.4596 25.9376C17.6546 23.153 16.6425 17.4742 18.7688 15.3117C24.0129 15.3117 27.1833 18.7658 27.9446 19.6989C30.5579 18.7895 33.4279 18.274 36.4438 18.274C39.4654 18.274 42.3471 18.7895 44.9663 19.7048C45.7188 18.7776 48.8921 15.3117 54.1479 15.3117C56.2829 17.4771 55.2592 23.1796 54.4454 25.9583C56.8838 28.7577 58.3188 32.0785 58.3188 35.5148C58.3188 43.5042 52.7654 49.3904 41.1279 50.6138C44.3304 52.3113 46.6667 57.0806 46.6667 60.6739V68.773C46.6667 69.081 46.5996 69.3032 46.5646 69.5669C60.2029 64.7116 70 51.5588 70 36.048C70 16.4166 54.3288 0.5 35 0.5Z" fill="white"/>
</svg>
