<svg width="70" height="71" viewBox="0 0 70 71" fill="none" xmlns="http://www.w3.org/2000/svg">
<path fill-rule="evenodd" clip-rule="evenodd" d="M35 19.3462C26.0785 19.3462 18.8462 26.5785 18.8462 35.5C18.8462 44.4215 26.0785 51.6538 35 51.6538C43.9215 51.6538 51.1538 44.4215 51.1538 35.5C51.1446 26.5823 43.9177 19.3554 35 19.3462ZM35 46.2692C29.0523 46.2692 24.2308 41.4477 24.2308 35.5C24.2308 29.5523 29.0523 24.7308 35 24.7308C40.9477 24.7308 45.7692 29.5523 45.7692 35.5C45.7692 41.4477 40.9477 46.2692 35 46.2692ZM51.1538 0.5H18.8462C8.44232 0.511129 0.0111291 8.94232 0 19.3462V51.6538C0.0111291 62.0577 8.44232 70.4889 18.8462 70.5H51.1538C61.5577 70.4889 69.9889 62.0577 70 51.6538V19.3462C69.9889 8.94232 61.5577 0.511129 51.1538 0.5ZM64.6154 51.6538C64.6154 59.0884 58.5884 65.1154 51.1538 65.1154H18.8462C11.4116 65.1154 5.38462 59.0884 5.38462 51.6538V19.3462C5.38462 11.9116 11.4116 5.88462 18.8462 5.88462H51.1538C58.5884 5.88462 64.6154 11.9116 64.6154 19.3462V51.6538ZM56.5385 18C56.5385 20.2304 54.7304 22.0385 52.5 22.0385C50.2696 22.0385 48.4615 20.2304 48.4615 18C48.4615 15.7696 50.2696 13.9615 52.5 13.9615C54.7304 13.9615 56.5385 15.7696 56.5385 18Z" fill="white"/>
</svg>
